<svg width="99" height="46" viewBox="0 0 99 46" fill="none" xmlns="http://www.w3.org/2000/svg">
<path d="M29.4014 43.8847V23.1625C29.4014 22.7286 29.7268 22.4031 30.1608 22.4031H32.2764C32.7104 22.4031 33.0359 22.7286 33.0359 23.1625V43.8847C33.0359 44.3187 32.7104 44.6442 32.2764 44.6442H30.1608C29.7268 44.6442 29.4014 44.3187 29.4014 43.8847Z" fill="white"/>
<path d="M48.9837 37.2126C48.9837 38.4061 48.821 39.4367 48.4413 40.4132C48.1158 41.3896 47.5733 42.2033 46.9224 42.9085C46.2714 43.6137 45.5119 44.1019 44.5898 44.4817C43.6676 44.8614 42.6369 45.0241 41.4977 45.0241C40.3585 45.0241 39.2736 44.8614 38.3514 44.4817C37.4292 44.1019 36.6155 43.5595 36.0188 42.9085C35.3678 42.2033 34.8796 41.3896 34.5541 40.4132C34.2287 39.4367 34.0659 38.4061 34.0659 37.2126C34.0659 36.0192 34.2287 34.9885 34.6084 34.0121C34.9339 33.0356 35.4763 32.2219 36.1273 31.5167C36.7782 30.8115 37.5377 30.3233 38.4599 29.9436C39.3821 29.5639 40.4128 29.4011 41.5519 29.4011C42.6911 29.4011 43.7761 29.5639 44.6982 29.9436C45.6204 30.3233 46.4341 30.8658 47.0308 31.5167C47.6818 32.2219 48.17 33.0356 48.4955 34.0121C48.821 34.9885 48.9837 36.0192 48.9837 37.2126ZM45.2407 37.2126C45.2407 36.3989 45.1322 35.748 44.9695 35.1513C44.8067 34.5545 44.5355 34.0663 44.21 33.6324C43.8845 33.1984 43.5048 32.9272 43.0166 32.7102C42.5826 32.4932 42.0402 32.3847 41.4977 32.3847C40.9552 32.3847 40.467 32.4932 40.033 32.7102C39.5991 32.9272 39.1651 33.1984 38.8396 33.6324C38.5141 34.0663 38.2429 34.5545 38.0802 35.1513C37.9174 35.748 37.8089 36.4532 37.8089 37.2126C37.8089 37.9721 37.9174 38.6773 38.0802 39.274C38.2429 39.8707 38.5141 40.3589 38.8396 40.7929C39.1651 41.1726 39.5448 41.4981 40.033 41.7151C40.467 41.9321 41.0095 42.0406 41.5519 42.0406C42.0944 42.0406 42.5826 41.9321 43.0166 41.7151C43.4506 41.4981 43.8303 41.1726 44.21 40.7929C44.5355 40.4132 44.8067 39.8707 44.9695 39.274C45.1322 38.6773 45.2407 37.9721 45.2407 37.2126Z" fill="white"/>
<path d="M58.9666 44.0479C58.9666 44.3734 58.7496 44.6446 58.4241 44.6989C58.1529 44.7531 57.8274 44.8074 57.5019 44.8616C56.9595 44.9159 56.417 44.9701 55.9288 44.9701C54.6811 44.9701 53.6504 44.7531 52.891 44.3734C52.0773 43.9937 51.5348 43.397 51.2093 42.6375C50.9923 42.0951 50.8296 41.3356 50.8296 40.4134V33.4156C50.8296 33.0359 50.5041 32.7104 50.1244 32.7104H48.714C48.3343 32.7104 48.0088 32.3849 48.0088 32.0052V30.3778C48.0088 29.9981 48.3343 29.6726 48.714 29.6726H50.1244C50.5041 29.6726 50.8296 29.3471 50.8296 28.9674V26.2008C50.8296 25.8211 51.1551 25.4956 51.5348 25.4956H53.8132C54.1929 25.4956 54.5184 25.8211 54.5184 26.2008V28.9674C54.5184 29.3471 54.8439 29.6726 55.2236 29.6726H58.1529C58.5326 29.6726 58.8581 29.9981 58.8581 30.3778V32.0052C58.8581 32.3849 58.5326 32.7104 58.1529 32.7104H55.2236C54.8439 32.7104 54.5184 33.0359 54.5184 33.4156V39.9794C54.5184 40.5762 54.6269 40.9559 54.7896 41.2271C55.1151 41.7153 55.7118 41.9323 56.634 41.9323C57.068 41.9323 57.4477 41.9323 57.8817 41.8238C58.3156 41.7696 58.6954 41.6611 59.0751 41.5526V44.0479H58.9666Z" fill="white"/>
<path d="M69.7071 36.6704C69.3816 36.6704 69.0561 36.6704 68.7306 36.6704C68.4052 36.6704 68.0797 36.6704 67.8084 36.6162V43.614C67.8084 44.2107 67.3202 44.6447 66.7778 44.6447H65.0961C64.4994 44.6447 64.0654 44.1564 64.0654 43.614V25.1159C64.0654 24.5192 64.5536 24.0852 65.0961 24.0852H69.9783C70.9547 24.0852 71.8227 24.0852 72.5821 24.1937C73.3416 24.3022 73.9926 24.4107 74.5893 24.5734C75.9997 25.0074 77.0846 25.7126 77.8441 26.6348C78.6035 27.557 78.9832 28.7504 78.9832 30.2151C78.9832 31.1915 78.7662 32.1137 78.3865 32.8731C77.9525 33.6868 77.3558 34.3378 76.5964 34.8803C75.8369 35.4227 74.8605 35.8567 73.7213 36.1279C72.5821 36.3992 71.2802 36.5619 69.8156 36.5619L69.7071 36.6704ZM67.8084 33.4156C67.8084 33.4156 68.2967 33.4156 68.6221 33.4699C68.9476 33.5241 69.2731 33.4699 69.6528 33.4699C70.6835 33.4699 71.4972 33.3614 72.2024 33.1986C72.9076 33.0359 73.4501 32.8189 73.8841 32.4934C74.318 32.1679 74.5893 31.8425 74.8062 31.4085C74.969 30.9745 75.0775 30.5405 75.0775 30.0523C75.0775 29.4556 74.9147 28.9132 74.6435 28.4792C74.3723 28.0452 73.8841 27.7197 73.1789 27.4485C72.7991 27.34 72.3652 27.2315 71.8769 27.1773C71.3887 27.123 70.6835 27.0688 69.9241 27.0688H68.8391C68.2424 27.0688 67.8084 27.557 67.8084 28.0995V33.2529V33.4156Z" fill="white"/>
<path d="M81.9655 22.4031C82.9962 22.4031 83.8642 23.271 83.8642 24.3017V24.4102C83.8642 25.4409 82.9962 26.3088 81.9655 26.3088C80.9348 26.3088 80.0669 25.4409 80.0669 24.4102V24.3017C80.0669 23.271 80.9348 22.4031 81.9655 22.4031ZM81.3688 29.7806H82.5622C83.2674 29.7806 83.8099 30.3231 83.8099 31.0283V43.4507C83.8099 44.156 83.2674 44.6984 82.5622 44.6984H81.3688C80.6636 44.6984 80.1211 44.156 80.1211 43.4507V31.0283C80.1211 30.3231 80.6636 29.7806 81.3688 29.7806Z" fill="white"/>
<path d="M88.8548 31.788H88.909C89.126 31.4625 89.3973 31.1913 89.7227 30.8658C90.0482 30.5403 90.4279 30.3234 90.8619 30.1064C91.2959 29.8894 91.7299 29.7266 92.2723 29.5639C92.7606 29.4012 93.303 29.3469 93.8997 29.3469C94.4422 29.3469 94.9847 29.4012 95.4729 29.5097C95.9611 29.6182 96.4493 29.8351 96.8833 30.1064C97.3173 30.3776 97.697 30.7031 98.0225 31.1371C98.3479 31.571 98.6192 32.0593 98.7819 32.6017C98.8904 32.9272 98.9447 33.2527 98.9989 33.6324C98.9989 34.0121 98.9989 34.4461 98.9989 34.9343V43.5595C98.9989 44.1562 98.5107 44.5902 97.9682 44.5902H96.3951C95.7984 44.5902 95.3644 44.102 95.3644 43.5595V35.531C95.3644 35.1513 95.3644 34.7716 95.3644 34.5003C95.3644 34.2291 95.2559 33.9579 95.2016 33.7409C95.0389 33.2527 94.7134 32.9272 94.3879 32.7102C94.0082 32.4932 93.5742 32.3847 93.0318 32.3847C92.3266 32.3847 91.6214 32.5475 91.0247 32.873C90.4822 33.1442 89.994 33.5239 89.56 34.0121C89.3973 34.1749 89.2888 34.4461 89.2888 34.7173V43.5053C89.2888 44.102 88.8006 44.536 88.2581 44.536H86.7392C86.1425 44.536 85.7085 44.0477 85.7085 43.5053V30.7031C85.7085 30.1064 86.1967 29.6724 86.7392 29.6724H87.8241C88.3123 29.6724 88.8005 30.0521 88.8548 30.5403L89.0718 31.7338L88.8548 31.788Z" fill="white"/>
<path d="M2.82211 44.1018C2.82211 44.1018 2.60512 44.4273 2.44238 44.5358L2.82211 44.1018Z" fill="white"/>
<path d="M15.189 0C7.16055 0 0.596712 6.18411 0 14.0499C0 14.4296 0 14.7551 0 15.1348V43.1803C0 43.1803 0 43.2345 0 43.2888C0 44.1025 0.705206 44.8077 1.5189 44.8077C1.73589 44.8077 1.95288 44.7534 2.16986 44.6449C2.22411 44.6449 2.3326 44.5364 2.38685 44.4822L2.76658 44.0482L15.2975 30.2696C23.5973 30.2153 30.3238 23.4345 30.3238 15.1348C30.3238 6.83507 23.543 0 15.189 0ZM22.7836 21.9156C22.7836 22.4038 22.4038 22.7836 21.9156 22.7836H16.9792C16.9792 22.7836 16.9249 22.7836 16.8707 22.7836V17.7386H13.4532V22.7836C13.4532 22.7836 13.3447 22.7836 13.2904 22.7836H8.46247C8.02849 22.7836 7.70301 22.5666 7.59452 22.1326C7.59452 22.0241 7.59452 21.9156 7.59452 21.8071C7.59452 19.8 7.59452 17.7386 7.59452 15.7315C7.59452 15.5688 7.59452 15.4603 7.75726 15.3518C9.00493 14.3211 10.2526 13.2904 11.5003 12.314C12.4767 11.5003 13.4532 10.7408 14.3753 9.92712C14.6466 9.71014 14.8636 9.49315 15.1348 9.33041C15.189 9.27616 15.2433 9.27616 15.2975 9.33041C16.057 9.98137 16.8707 10.6323 17.6301 11.2833C18.7693 12.2597 19.9627 13.1819 21.1562 14.1584C21.6986 14.5923 22.1869 15.0263 22.7293 15.4603C22.7836 15.4603 22.8378 15.623 22.8378 15.6773V21.9156H22.7836ZM25.8214 14.5381C25.5501 14.8636 25.2789 15.2433 25.0077 15.5688C24.7364 15.8942 24.5195 15.8942 24.2482 15.6773C23.4345 15.0263 22.6751 14.3753 21.8614 13.6701C21.1562 13.0734 20.451 12.4767 19.7458 11.9342C19.0406 11.3375 18.3353 10.7408 17.6301 10.1441C16.8707 9.49315 16.057 8.84219 15.2975 8.19123C15.189 8.13699 15.1348 8.13699 15.0805 8.19123C14.4296 8.7337 13.8329 9.27616 13.1819 9.76438C12.4767 10.3611 11.7715 10.9578 11.0663 11.5545C10.5238 12.0427 9.98137 12.4767 9.38466 12.9649C8.67945 13.5616 7.97425 14.1041 7.26904 14.7008C6.88932 15.0263 6.56384 15.2975 6.18411 15.623C6.12986 15.623 6.07562 15.7315 6.02137 15.7858C5.80438 15.9485 5.5874 15.8942 5.42466 15.7315C5.09918 15.3518 4.82795 14.9721 4.50247 14.6466V14.4296C4.50247 14.4296 4.82795 14.0499 5.04493 13.8871C6.4011 12.7479 7.75726 11.6088 9.16767 10.4696C10.6866 9.22192 12.1512 7.97425 13.6701 6.72658C13.9414 6.50959 14.1584 6.2926 14.4296 6.12986C14.9721 5.80438 15.7315 5.85863 16.2197 6.2926C17.2504 7.16055 18.2811 8.02849 19.3118 8.89644C19.3118 8.89644 19.3118 8.89644 19.4203 8.95068C19.4203 8.84219 19.4203 8.78794 19.4203 8.7337V6.50959C19.4203 6.07562 19.5288 5.96712 19.9627 5.96712H22.2411C22.6208 5.96712 22.7836 6.12986 22.7836 6.50959V11.6088C22.7836 11.6088 22.7836 11.8258 22.8921 11.88C23.76 12.5852 24.6279 13.3447 25.5501 14.0499C25.6586 14.1584 25.7671 14.2668 25.8214 14.3753V14.5923V14.5381Z" fill="white"/>
</svg>
