<svg xmlns="http://www.w3.org/2000/svg" version="1.1" xmlns:xlink="http://www.w3.org/1999/xlink" width="1000" height="1000"><metadata><rdf:RDF xmlns:rdf="http://www.w3.org/1999/02/22-rdf-syntax-ns#" xmlns:dc="http://purl.org/dc/elements/1.1/"><rdf:Description><dc:creator>RealFaviconGenerator</dc:creator><dc:source>https://realfavicongenerator.net</dc:source></rdf:Description></rdf:RDF></metadata><g clip-path="url(#SvgjsClipPath1009)"><rect width="1000" height="1000" fill="#ffffff"></rect><g transform="matrix(6.140350877192983,0,0,6.140350877192983,263.59649122807014,150)"><svg xmlns="http://www.w3.org/2000/svg" width="77" height="114" viewBox="0 0 77 114" fill="none"><path d="M38.32 0C18.1 0 1.54 15.66 0.11 35.53C0.06 36.45 0.02 37.37 0.02 38.31L0 109.21H0.02C0 109.3 0 109.37 0 109.47C0 111.57 1.72 113.26 3.81 113.26C4.4 113.26 4.96 113.12 5.48 112.88C5.67 112.79 5.88 112.67 6.05 112.53L7.06 111.42L38.68 76.6C59.68 76.41 76.64 59.34 76.64 38.31C76.64 17.28 59.47 0 38.32 0ZM57.58 55.45C57.58 56.74 56.69 57.66 55.41 57.66H42.91C42.84 57.66 42.75 57.64 42.6 57.64V44.85H34.03V57.64C33.84 57.64 33.72 57.66 33.58 57.66H21.31C20.18 57.66 19.4 57.09 19.12 56.08C19.03 55.8 19.03 55.51 19.03 55.23C19.03 50.12 19.03 44.99 19.01 39.88C19.01 39.46 19.13 39.17 19.48 38.89C22.61 36.32 25.74 33.73 28.87 31.14C31.3 29.14 33.74 27.14 36.19 25.14C36.83 24.62 37.46 24.1 38.07 23.59C38.26 23.43 38.35 23.45 38.54 23.59C40.52 25.24 42.5 26.89 44.5 28.53C47.44 30.96 50.39 33.36 53.35 35.78C54.67 36.86 55.99 37.95 57.28 39.05C57.42 39.17 57.56 39.43 57.56 39.62V55.44L57.58 55.45ZM65.3 36.8C64.59 37.65 63.91 38.52 63.2 39.37C62.56 40.15 62.02 40.22 61.27 39.58C59.24 37.91 57.27 36.24 55.24 34.56C53.47 33.08 51.68 31.59 49.9 30.11C48.09 28.6 46.27 27.1 44.48 25.59C42.5 23.94 40.55 22.32 38.59 20.67C38.38 20.48 38.21 20.51 38 20.67C36.4 22.01 34.82 23.35 33.22 24.67C31.41 26.18 29.59 27.68 27.8 29.19C26.39 30.37 25 31.52 23.61 32.7C21.82 34.18 20.05 35.64 18.27 37.13C17.38 37.91 16.46 38.66 15.54 39.41C15.4 39.53 15.26 39.65 15.09 39.76C14.55 40.11 14.05 40.09 13.63 39.6C12.83 38.68 12.08 37.74 11.3 36.8V36.19C11.75 35.74 12.17 35.25 12.64 34.85C16.1 31.95 19.56 29.08 23.05 26.19C26.84 23.03 30.63 19.88 34.42 16.72C35.06 16.2 35.67 15.64 36.35 15.24C37.79 14.39 39.65 14.6 40.92 15.66C43.53 17.85 46.15 20.04 48.76 22.23C48.81 22.28 48.85 22.3 48.97 22.37C48.99 22.16 49.02 21.99 49.02 21.83V16.23C49.02 15.15 49.35 14.84 50.43 14.82H56.22C57.21 14.84 57.56 15.2 57.56 16.19V29.12C57.56 29.45 57.65 29.66 57.89 29.85C60.13 31.69 62.34 33.52 64.55 35.38C64.83 35.62 65.04 35.92 65.28 36.2V36.81L65.3 36.8Z" fill="#1D4ED8"></path></svg></g></g><defs><clipPath id="SvgjsClipPath1009"><rect width="1000" height="1000" x="0" y="0" rx="350" ry="350"></rect></clipPath></defs></svg>