<svg xmlns="http://www.w3.org/2000/svg" viewBox="0 0 640 420" fill="none">
  <rect width="640" height="420" fill="#f3f0eb"/>
  <!-- Lagoon hint -->
  <path d="M520 280 Q580 260 640 300 L640 420 L480 420 Q500 360 520 280Z" fill="#aad3df" opacity="0.8"/>
  <!-- Roads -->
  <path d="M0 160 Q200 140 400 170 T640 150" stroke="#fff" stroke-width="14" stroke-linecap="round"/>
  <path d="M0 160 Q200 140 400 170 T640 150" stroke="#e3dcd1" stroke-width="8"/>
  <path d="M280 0 Q300 160 270 300 Q260 380 290 420" stroke="#fff" stroke-width="12" stroke-linecap="round"/>
  <path d="M120 0 V420" stroke="#fff" stroke-width="10" stroke-linecap="round"/>
  <path d="M450 0 V420" stroke="#fff" stroke-width="9" stroke-linecap="round"/>
  <path d="M0 280 H520" stroke="#ebe4d8" stroke-width="3" opacity="0.7"/>
  <path d="M0 80 H640" stroke="#ebe4d8" stroke-width="2.5" opacity="0.6"/>
  <rect x="50" y="200" width="90" height="60" rx="2" fill="#e7e0d5" opacity="0.8"/>
  <rect x="320" y="60" width="100" height="70" rx="2" fill="#e7e0d5" opacity="0.75"/>
  <rect x="180" y="320" width="110" height="55" rx="2" fill="#e7e0d5" opacity="0.8"/>
</svg>
